<svg xmlns="http://www.w3.org/2000/svg" xmlns:svg="http://www.w3.org/2000/svg" id="Layer_1" width="100" height="100" version="1.1" viewBox="0 0 106.254 101.667" xml:space="preserve"><path id="path3815" d="M 0.04748314,-2.3032033 L 9.7134907,-2.3032033 L 9.7134907,17.069742 L 19.379498,17.069742 L 19.379498,7.3865462 L 69.167955,8.286877 L 69.167955,20.879016 L 55.927423,20.879016 L 55.927423,33.739073 L 69.167955,33.739073 L 69.167955,46.331212 L 82.132643,46.331212 L 82.132643,33.739073 L 95.09733,33.739073 L 95.09733,20.879016 L 82.132643,20.879016 L 82.132643,8.286877 L 69.167955,8.286877 L 19.379498,7.3832692 L 9.7134907,7.3832692 L 9.7134907,-2.3032033 L 106.37356,-2.3032033 L 106.37356,104.248 L 87.041553,104.248 L 87.041553,55.815633 L 29.045506,55.815633 L 29.045506,94.561523 L 38.711513,94.561523 L 38.711513,65.502106 L 58.04353,65.502106 L 58.04353,94.561523 L 87.041553,94.561523 L 87.041553,104.248 L 19.379498,104.248 L 0.04748314,84.875051 z" style="fill:#000;stroke:none"/><metadata id="metadata3035"/></svg>