<svg xmlns="http://www.w3.org/2000/svg" xmlns:xlink="http://www.w3.org/1999/xlink" width="100" height="100" x="0" y="0" enable-background="new 0 0 100 100" version="1.1" viewBox="0 0 100 100" xml:space="preserve"><g id="Your_Icon"><polygon fill="#000" points="9.598 89.006 98.604 89.006 98.604 16.101 58.201 16.101 58.201 24.201 90.503 24.201 90.503 80.905 17.698 80.905 17.698 56.604 9.598 56.604"/><path fill="#000" d="M1.497,48.503h8.101v-8.101h8.101v8.101h8.101v-8.101h8.101v8.101H42v-8.101h8.101v8.101h8.101V32.302 h-8.101V16.101H42V8h-8.101v8.101h-8.101V8h-8.101v8.101H9.598v16.201H1.497V48.503z M17.698,32.302v-8.101h8.101v8.101H17.698z M33.899,32.302v-8.101H42v8.101H33.899z"/></g></svg>